<svg viewBox="0 0 240 240" xmlns="http://www.w3.org/2000/svg">
  <!-- Five Fights Circle - With radial labels -->

  <!-- Earn More: #6D28D9 (top, 0° to 72°) -->
  <path d="M 120 120 L 120 30 A 90 90 0 0 1 205.88 54.90 Z" fill="#6D28D9" stroke="white" stroke-width="2"/>

  <!-- Build More: #047857 (right-top, 72° to 144°) -->
  <path d="M 120 120 L 205.88 54.90 A 90 90 0 0 1 175.88 189.90 Z" fill="#047857" stroke="white" stroke-width="2"/>

  <!-- Save More: #BE185D (right-bottom, 144° to 216°) -->
  <path d="M 120 120 L 175.88 189.90 A 90 90 0 0 1 20 120 Z" fill="#BE185D" stroke="white" stroke-width="2"/>

  <!-- Care More: #C2410C (left-bottom, 216° to 288°) -->
  <path d="M 120 120 L 20 120 A 90 90 0 0 1 54.12 50.10 Z" fill="#C2410C" stroke="white" stroke-width="2"/>

  <!-- Protect More: #B45309 (left-top, 288° to 360°) -->
  <path d="M 120 120 L 54.12 50.10 A 90 90 0 0 1 120 30 Z" fill="#B45309" stroke="white" stroke-width="2"/>

  <!-- Text labels positioned at the midpoint of each segment, facing outward -->
  <!-- Earn More (top, 36°) -->
  <text x="170" y="65" font-family="system-ui, -apple-system, sans-serif" font-size="14" font-weight="700" fill="white" text-anchor="middle" dominant-baseline="middle">Earn</text>
  <text x="170" y="82" font-family="system-ui, -apple-system, sans-serif" font-size="14" font-weight="700" fill="white" text-anchor="middle" dominant-baseline="middle">More</text>

  <!-- Build More (right, 108°) -->
  <text x="205" y="140" font-family="system-ui, -apple-system, sans-serif" font-size="14" font-weight="700" fill="white" text-anchor="middle" dominant-baseline="middle">Build</text>
  <text x="205" y="157" font-family="system-ui, -apple-system, sans-serif" font-size="14" font-weight="700" fill="white" text-anchor="middle" dominant-baseline="middle">More</text>

  <!-- Save More (bottom, 180°) -->
  <text x="120" y="200" font-family="system-ui, -apple-system, sans-serif" font-size="14" font-weight="700" fill="white" text-anchor="middle" dominant-baseline="middle">Save More</text>

  <!-- Care More (left, 252°) -->
  <text x="35" y="157" font-family="system-ui, -apple-system, sans-serif" font-size="14" font-weight="700" fill="white" text-anchor="middle" dominant-baseline="middle">Care</text>
  <text x="35" y="174" font-family="system-ui, -apple-system, sans-serif" font-size="14" font-weight="700" fill="white" text-anchor="middle" dominant-baseline="middle">More</text>

  <!-- Protect More (top-left, 324°) -->
  <text x="65" y="58" font-family="system-ui, -apple-system, sans-serif" font-size="14" font-weight="700" fill="white" text-anchor="middle" dominant-baseline="middle">Protect</text>
  <text x="65" y="75" font-family="system-ui, -apple-system, sans-serif" font-size="14" font-weight="700" fill="white" text-anchor="middle" dominant-baseline="middle">More</text>
</svg>