<svg viewBox="0 0 200 200" xmlns="http://www.w3.org/2000/svg">
  <!-- Five Fights Circle - With Labels -->
  <!-- Earn More: #6D28D9 (0° to 72°) -->
  <path d="M 100 100 L 100 10 A 90 90 0 0 1 185.36 34.73 Z" fill="#6D28D9"/>

  <!-- Build More: #047857 (72° to 144°) -->
  <path d="M 100 100 L 185.36 34.73 A 90 90 0 0 1 155.90 175.90 Z" fill="#047857"/>

  <!-- Save More: #BE185D (144° to 216°) -->
  <path d="M 100 100 L 155.90 175.90 A 90 90 0 0 1 0 100 Z" fill="#BE185D"/>

  <!-- Care More: #C2410C (216° to 288°) -->
  <path d="M 100 100 L 0 100 A 90 90 0 0 1 44.10 24.10 Z" fill="#C2410C"/>

  <!-- Protect More: #B45309 (288° to 360°) -->
  <path d="M 100 100 L 44.10 24.10 A 90 90 0 0 1 100 10 Z" fill="#B45309"/>

  <!-- Text labels around the circle -->
  <!-- Earn More (top right, 36°) -->
  <text x="145" y="55" font-family="system-ui, sans-serif" font-size="10" font-weight="600" fill="white" text-anchor="middle" dominant-baseline="middle">Earn</text>
  <text x="145" y="67" font-family="system-ui, sans-serif" font-size="10" font-weight="600" fill="white" text-anchor="middle" dominant-baseline="middle">More</text>

  <!-- Build More (right, 108°) -->
  <text x="175" y="110" font-family="system-ui, sans-serif" font-size="10" font-weight="600" fill="white" text-anchor="middle" dominant-baseline="middle">Build</text>
  <text x="175" y="122" font-family="system-ui, sans-serif" font-size="10" font-weight="600" fill="white" text-anchor="middle" dominant-baseline="middle">More</text>

  <!-- Save More (bottom right, 180°) -->
  <text x="100" y="165" font-family="system-ui, sans-serif" font-size="10" font-weight="600" fill="white" text-anchor="middle" dominant-baseline="middle">Save More</text>

  <!-- Care More (bottom left, 252°) -->
  <text x="25" y="122" font-family="system-ui, sans-serif" font-size="10" font-weight="600" fill="white" text-anchor="middle" dominant-baseline="middle">Care</text>
  <text x="25" y="134" font-family="system-ui, sans-serif" font-size="10" font-weight="600" fill="white" text-anchor="middle" dominant-baseline="middle">More</text>

  <!-- Protect More (top left, 324°) -->
  <text x="55" y="45" font-family="system-ui, sans-serif" font-size="10" font-weight="600" fill="white" text-anchor="middle" dominant-baseline="middle">Protect</text>
  <text x="55" y="57" font-family="system-ui, sans-serif" font-size="10" font-weight="600" fill="white" text-anchor="middle" dominant-baseline="middle">More</text>
</svg>